<svg xmlns="http://www.w3.org/2000/svg" width="1812" height="676" viewBox="0 0 1812 676" version="1.1">
	<path d="M 616.830 24.868 C 615.132 25.270, 612.136 28.047, 608.595 32.500 C 605.534 36.350, 602.625 39.500, 602.130 39.500 C 601.636 39.500, 598.679 36.237, 595.559 32.250 L 589.886 25 584.943 25 C 582.224 25, 580 25.387, 580 25.859 C 580 26.332, 581.739 28.694, 583.865 31.109 C 585.991 33.524, 589.740 37.958, 592.196 40.962 L 596.663 46.424 587.350 57.962 L 578.037 69.500 582.765 69.815 C 587.956 70.161, 587.486 70.521, 598 58.129 L 602.500 52.825 609.240 61.412 L 615.979 70 620.990 70 C 623.745 70, 625.996 69.662, 625.991 69.250 C 625.986 68.838, 621.940 63.775, 617 58 C 612.060 52.225, 608.014 47.204, 608.009 46.841 C 608.004 46.479, 611.825 41.601, 616.500 36 C 621.175 30.399, 625 25.408, 625 24.909 C 625 23.906, 620.979 23.887, 616.830 24.868 M 640.764 24.996 C 628.714 28.624, 622.571 41.132, 626.389 54.266 C 629.724 65.738, 636.187 69.943, 650.538 69.978 C 661.911 70.006, 666.964 67.799, 671.679 60.744 C 680.828 47.054, 674.874 28.313, 660.301 24.930 C 655.625 23.844, 644.463 23.882, 640.764 24.996 M 780.249 25.250 C 778.424 27.541, 758 64.818, 758 65.858 C 758 66.421, 757.557 67.156, 757.015 67.491 C 756.405 67.868, 756.260 66.951, 756.633 65.084 L 757.236 62.068 745.868 61.784 L 734.500 61.500 734.869 49.774 C 735.072 43.324, 734.924 35.112, 734.539 31.524 L 733.841 25 729.920 25 L 726 25 726 47.500 L 726 70 745.250 69.985 L 764.500 69.970 771.760 56.735 C 775.753 49.456, 780.072 41.759, 781.357 39.631 L 783.695 35.762 787.597 42.631 C 789.744 46.409, 791.650 49.837, 791.833 50.250 C 792.017 50.663, 789.474 51, 786.182 51 C 780.403 51, 780.127 51.120, 778.133 54.500 L 776.067 58 786.284 58.042 L 796.500 58.085 799.458 64.042 C 802.383 69.934, 802.463 70, 806.708 70 C 809.540 70, 811 69.562, 811 68.714 C 811 67.001, 788.119 25.706, 786.648 24.765 C 784.844 23.611, 781.343 23.876, 780.249 25.250 M 816.250 24.773 L 814 25.139 814 47.570 L 814 70 818 70 L 822 70 822 53.873 L 822 37.746 827.598 44.623 C 846.758 68.162, 848.449 69.978, 851.215 69.989 C 852.883 69.996, 854.329 69.255, 854.965 68.066 C 855.585 66.907, 856 57.638, 856 44.949 L 856 23.767 853.750 24.370 C 852.513 24.701, 850.422 24.979, 849.105 24.986 L 846.709 25 847.241 40 C 847.534 48.250, 847.486 54.981, 847.136 54.957 C 846.786 54.934, 844.813 52.796, 842.751 50.207 C 831.371 35.916, 822.263 25.620, 820.500 25.052 C 819.400 24.698, 817.487 24.572, 816.250 24.773 M 871.702 24.965 C 869.459 25.400, 866.490 27.071, 864.452 29.047 L 861 32.392 861 51.196 L 861 70 880.500 70 L 900 70 900 66 L 900 62 885 62 L 870 62 870 56.500 L 870 51 883.500 51 L 897 51 897 47 L 897 43 883.500 43 L 870 43 870 39.122 C 870 33.132, 871.391 32.550, 886.652 32.152 L 900 31.804 900 28.519 C 900 25.957, 899.504 25.100, 897.750 24.630 C 894.710 23.816, 876.426 24.051, 871.702 24.965 M 903.306 25.666 C 903.056 26.307, 902.997 28.107, 903.175 29.666 L 903.500 32.500 911.250 32.159 L 919 31.817 919 50.909 L 919 70 923 70 L 927 70 927 50.889 L 927 31.779 935.244 32.139 C 942.601 32.461, 943.476 32.312, 943.369 30.750 C 943.304 29.788, 943.194 27.831, 943.125 26.402 L 943 23.804 923.381 24.152 C 909.656 24.395, 903.625 24.850, 903.306 25.666 M 984.510 25.259 C 984.280 25.942, 983.958 33.628, 983.795 42.340 C 983.427 62.077, 983.482 62, 969.889 62 L 961 62 961 66 L 961 70 970.766 70 C 982.752 70, 986.430 68.438, 989.771 61.926 C 991.901 57.774, 992.025 56.478, 991.771 41.025 L 991.500 24.550 988.215 24.284 C 986.283 24.128, 984.757 24.530, 984.510 25.259 M 1009.558 25.427 C 1000.202 28.914, 996.060 35.376, 996.050 46.500 C 996.043 54.689, 998.074 59.910, 1003.128 64.689 C 1007.753 69.062, 1010.798 70.002, 1020.315 69.990 C 1033.687 69.974, 1040.771 65.570, 1044.521 54.940 C 1048.469 43.750, 1044.134 31.223, 1034.607 26.297 C 1030.234 24.035, 1014.736 23.497, 1009.558 25.427 M 1049.416 24.917 C 1048.518 25.817, 1049.073 53.724, 1050.060 57.277 C 1051.485 62.407, 1056.390 67.737, 1060.941 69.100 C 1066.922 70.892, 1080.306 69.909, 1083.621 67.434 C 1090.158 62.553, 1090.471 61.464, 1090.814 42.430 L 1091.129 25 1087.064 25 L 1083 25 1083 40.444 C 1083 55.329, 1082.913 55.990, 1080.587 58.694 C 1078.338 61.308, 1077.657 61.500, 1070.614 61.500 C 1064.086 61.500, 1062.745 61.190, 1060.778 59.226 C 1058.644 57.095, 1058.468 55.930, 1058 40.829 L 1057.500 24.706 1053.666 24.603 C 1051.557 24.546, 1049.644 24.688, 1049.416 24.917 M 1096.721 24.612 C 1096.325 25.009, 1096 35.383, 1096 47.667 L 1096 70 1100.500 70 L 1105 70 1105 50.887 L 1105 31.773 1115.612 32.166 C 1125.274 32.524, 1126.393 32.768, 1128.112 34.890 C 1130.569 37.924, 1130.518 42.482, 1128 45 C 1126.314 46.686, 1124.667 47, 1117.500 47 L 1109 47 1109 51 L 1109 55 1113.307 55 C 1117.861 55, 1118.057 55.180, 1126.500 67.141 C 1128.260 69.634, 1129.130 69.975, 1133.750 69.987 C 1136.638 69.994, 1139 69.656, 1139 69.236 C 1139 68.816, 1136.266 65.443, 1132.924 61.740 C 1126.948 55.119, 1126.888 54.993, 1129.236 54.100 C 1130.549 53.601, 1133.058 51.559, 1134.812 49.561 C 1137.602 46.384, 1138 45.217, 1137.996 40.215 C 1137.992 33.616, 1135.651 28.889, 1131.294 26.681 C 1128.252 25.139, 1098.004 23.329, 1096.721 24.612 M 1177.349 25.534 C 1176.999 26.444, 1176.960 33.784, 1177.262 41.845 L 1177.810 56.500 1175.655 53.877 C 1174.470 52.434, 1168.368 45.347, 1162.096 38.127 C 1151.164 25.543, 1150.533 25, 1146.846 25 L 1143 25 1143 47.500 L 1143 70 1147 70 L 1151 70 1151 54.022 L 1151 38.045 1154.794 42.272 C 1156.880 44.598, 1163.006 51.787, 1168.406 58.250 C 1177.346 68.948, 1178.524 70, 1181.567 70 C 1184.551 70, 1184.973 69.651, 1185.498 66.750 C 1185.821 64.963, 1185.954 54.725, 1185.793 44 L 1185.500 24.500 1181.742 24.189 C 1178.971 23.960, 1177.817 24.313, 1177.349 25.534 M 1202.332 24.727 L 1192.164 25.068 1191.644 32.284 C 1191.357 36.253, 1191.208 46.250, 1191.312 54.500 L 1191.500 69.500 1210.750 69.772 L 1230 70.043 1230 66.129 C 1230 63.432, 1229.493 62.019, 1228.369 61.588 C 1227.472 61.244, 1220.722 61.264, 1213.369 61.633 L 1200 62.304 1200 56.652 L 1200 51 1213.500 51 L 1227 51 1227 47 L 1227 43 1213.500 43 L 1200 43 1200 39.691 C 1200 33.107, 1201.245 32.538, 1216.473 32.171 L 1230.111 31.843 1229.806 28.171 L 1229.500 24.500 1221 24.443 C 1216.325 24.412, 1207.924 24.540, 1202.332 24.727 M 1233.180 24.852 C 1230.979 25.472, 1231.348 26.155, 1240.430 38.277 L 1250 51.050 1250 60.525 L 1250 70 1254.500 70 L 1259 70 1259 60.674 L 1259 51.349 1267.108 40.924 C 1271.568 35.191, 1276.099 29.263, 1277.177 27.750 L 1279.136 25 1274.163 25 L 1269.190 25 1261.787 34.427 L 1254.385 43.853 1249.942 37.229 C 1241.281 24.314, 1239.573 23.053, 1233.180 24.852 M 537 47.500 L 537 70 556.500 70 L 576 70 576 65.750 L 576.001 61.500 561.250 61.500 L 546.500 61.500 546.198 56.250 L 545.895 51 558.366 51 C 565.225 51, 571.548 50.727, 572.418 50.393 C 573.431 50.005, 574 48.565, 574 46.393 L 574 43 560 43 L 546 43 546 38.475 C 546 32.545, 547.477 32, 563.565 32 L 576 32 576 28.500 L 576 25 556.500 25 L 537 25 537 47.500 M 679 47.500 L 679 70 683.500 70 L 688 70 688 50.858 L 688 31.715 699.250 32.388 C 709.593 33.007, 710.681 33.265, 712.750 35.587 C 715.678 38.873, 715.604 42.487, 712.545 45.545 C 710.301 47.790, 709.316 48, 701.045 48 L 692 48 692 52 L 692 56 702.250 55.996 C 710.713 55.993, 713.068 55.646, 715.759 54.005 C 725.527 48.050, 725.527 32.950, 715.759 26.995 C 712.850 25.221, 710.700 25.007, 695.750 25.004 L 679 25 679 47.500 M 641.270 33.421 C 636.582 35.548, 634.007 40.362, 634.007 47 C 634.007 57.902, 639.755 62.483, 652.616 61.834 C 658.031 61.561, 660.377 60.976, 662.050 59.485 C 668.681 53.573, 668.702 40.566, 662.090 34.582 C 659.252 32.013, 646 31.275, 641.270 33.421 M 1011.315 33.464 C 1006.901 35.383, 1004.593 40.181, 1004.542 47.544 C 1004.467 58.295, 1009.819 62.639, 1022.058 61.764 C 1032.896 60.988, 1037.260 56.466, 1037.137 46.139 C 1037.060 39.698, 1035.149 36.413, 1029.929 33.752 C 1025.765 31.628, 1015.886 31.475, 1011.315 33.464 M 386.500 96.932 C 347.392 97.591, 347.335 97.600, 335.311 105.193 C 319.655 115.081, 310.072 133.080, 310.017 152.701 C 309.963 172.138, 320.801 190.918, 336.979 199.420 C 348.898 205.683, 351.808 205.963, 405.068 205.983 C 459.139 206.002, 460.164 206.119, 466.335 212.949 C 468.292 215.115, 470.416 218.825, 471.056 221.193 C 472.436 226.298, 471.771 234.608, 469.656 238.698 C 467.349 243.160, 462.007 247.903, 458.052 249.002 C 455.868 249.609, 426.855 249.991, 382.726 249.994 L 310.953 250 311.226 267.250 L 311.500 284.500 383.782 284.757 C 462.419 285.036, 463.886 284.951, 475.490 279.461 C 482.218 276.279, 492.572 266.901, 497.031 259.951 C 502.702 251.114, 505.276 241.159, 505.291 228 C 505.302 218.666, 504.883 215.276, 503.064 210 C 498.547 196.894, 490.892 187.442, 479.504 180.913 C 469.813 175.356, 465.812 175, 413.102 175 C 381.759 175, 363.306 174.615, 359.933 173.892 C 349.492 171.653, 343.405 162.681, 344.171 150.660 C 344.672 142.795, 347.944 137.264, 354.228 133.661 L 358.500 131.211 428.500 130.627 L 498.500 130.042 498.500 113.593 L 498.500 97.143 460 96.743 C 438.825 96.522, 405.750 96.607, 386.500 96.932 M 585.250 96.760 L 566 97.043 566 112.522 L 566 128 548 128 L 530 128 530 206.500 L 530 285 619 285 L 708 285 708 267.500 L 708 250 636 250 L 564 250 564 228 L 564 206 630.025 206 L 696.051 206 695.775 190.250 L 695.500 174.500 629.869 174.818 L 564.238 175.135 564.492 163.885 L 564.746 152.635 576.123 141.661 L 587.500 130.687 618 130.875 C 634.775 130.979, 661.898 130.753, 678.273 130.374 L 708.047 129.685 707.773 113.092 L 707.500 96.500 656 96.488 C 627.675 96.482, 595.837 96.604, 585.250 96.760 M 807.500 96.996 C 784.199 98.592, 766.141 107.252, 750.358 124.397 C 738.860 136.888, 731.353 151.675, 727.818 168.798 C 726.150 176.876, 725.893 181.094, 726.283 194 C 726.822 211.819, 728.633 220.153, 734.841 233.403 C 746.565 258.421, 765.567 275.131, 790.500 282.348 C 797.122 284.265, 800.809 284.394, 858.750 284.737 L 920 285.099 920 267.595 L 920 250.090 861.750 249.795 L 803.500 249.500 796.821 246.900 C 773.536 237.835, 760 217.207, 760 190.787 C 760 163.043, 773.180 143.277, 798.429 133.153 C 801.977 131.730, 810.015 131.455, 861 131.010 L 919.500 130.500 919.500 113.701 L 919.500 96.902 869.500 96.538 C 842 96.338, 814.100 96.545, 807.500 96.996 M 1015 96.977 C 994.195 97.785, 989.636 98.642, 978.554 103.828 C 965.667 109.859, 951.868 121.651, 944.036 133.327 C 938.914 140.963, 933.219 153.973, 930.774 163.623 C 928.833 171.284, 928.536 174.965, 928.604 190.500 C 928.674 206.596, 928.959 209.537, 931.297 218.304 C 936.161 236.541, 944.147 250.048, 957.858 263.234 C 967.193 272.211, 976.701 277.884, 989.500 282.114 C 996.258 284.347, 997.876 284.439, 1036.285 284.776 C 1073.271 285.100, 1076.618 284.986, 1083.878 283.150 C 1109.186 276.750, 1129.807 258.501, 1140.548 233 C 1145.163 222.045, 1146.970 214.126, 1148.254 199.239 C 1151.318 163.731, 1140.474 133.907, 1117.588 114.890 C 1108.668 107.478, 1094.865 100.580, 1084.973 98.589 C 1075.620 96.707, 1041.931 95.931, 1015 96.977 M 1167.898 98.289 C 1166.029 99.547, 1163.375 102.585, 1162 105.039 L 1159.500 109.500 1159.787 197 L 1160.074 284.500 1176.037 284.775 L 1192 285.050 1192 219.902 C 1192 161.166, 1192.153 154.882, 1193.550 156.042 C 1194.403 156.750, 1214.541 180.073, 1238.300 207.871 C 1294.941 274.139, 1303.175 283.381, 1307.339 285.357 C 1312.178 287.653, 1318.753 287.448, 1322.982 284.870 C 1327.161 282.322, 1328.505 280.759, 1331.033 275.500 C 1332.885 271.649, 1332.957 268.262, 1332.978 184.323 C 1332.998 104.424, 1332.864 97.120, 1331.365 96.823 C 1330.466 96.645, 1323.266 96.636, 1315.365 96.801 L 1301 97.103 1301 162.551 C 1301 198.548, 1300.662 227.976, 1300.250 227.948 C 1299.838 227.919, 1297.273 225.193, 1294.552 221.889 C 1291.830 218.586, 1286.655 212.615, 1283.052 208.621 C 1276.387 201.233, 1263.166 185.913, 1229.443 146.500 C 1186.669 96.509, 1186.140 96, 1176.998 96 C 1172.712 96, 1170.452 96.569, 1167.898 98.289 M 1353.750 96.765 L 1347 97.091 1347 191.046 L 1347 285 1398.042 285 C 1452.662 285, 1457.901 284.613, 1469.500 279.717 C 1495.606 268.699, 1515.651 243.821, 1521.645 215 C 1524.125 203.075, 1524.127 177.638, 1521.650 166 C 1515.349 136.407, 1495.908 112.188, 1470.405 102.165 C 1458.561 97.510, 1453.004 97.045, 1405.500 96.734 C 1380.750 96.571, 1357.463 96.585, 1353.750 96.765 M 1378.393 131.172 C 1378.165 131.541, 1378.096 159.321, 1378.239 192.905 L 1378.500 253.967 1363.513 268.984 C 1355.269 277.243, 1348.924 284, 1349.411 284 C 1350.872 284, 1360.698 275.608, 1374.671 262.425 L 1387.841 250 1417.671 249.976 C 1434.116 249.962, 1449.468 249.497, 1451.885 248.940 C 1467.998 245.226, 1481.458 231.929, 1488.247 213.022 C 1491.095 205.090, 1491.826 183.161, 1489.563 173.528 C 1485.165 154.804, 1473.786 140.537, 1457.864 133.786 C 1452.696 131.595, 1451.153 131.493, 1415.653 131.006 C 1395.388 130.728, 1378.620 130.802, 1378.393 131.172 M 1002.585 132.119 C 995.843 133.700, 985.834 139.258, 980.055 144.629 C 958.547 164.620, 956.115 204.721, 974.874 230.081 C 980.220 237.309, 988.345 243.379, 997.764 247.184 C 1003.392 249.456, 1004.178 249.500, 1039.500 249.500 L 1075.500 249.500 1081.218 246.820 C 1093.952 240.852, 1102.064 233.306, 1107.904 222 C 1112.898 212.332, 1115 202.766, 1115 189.713 C 1115 160.513, 1100.280 138.753, 1076.356 132.584 C 1071.329 131.288, 1064.415 131.018, 1038.356 131.100 C 1020.835 131.156, 1004.738 131.614, 1002.585 132.119 M 1253.500 307.718 C 1246.990 309.299, 1244.388 313.416, 1228.986 346.500 C 1227.194 350.350, 1223.487 358.225, 1220.749 364 C 1203.410 400.575, 1188.914 431.320, 1183.502 443 C 1180.061 450.425, 1174.266 462.744, 1170.623 470.375 C 1166.980 478.006, 1164 484.430, 1164 484.650 C 1164 484.871, 1171.044 484.927, 1179.652 484.775 L 1195.305 484.500 1209.702 453.500 C 1217.621 436.450, 1230.214 409.225, 1237.687 393 C 1245.161 376.775, 1252.402 361.072, 1253.778 358.104 L 1256.280 352.709 1258.006 357.104 C 1258.955 359.522, 1264.784 372.300, 1270.960 385.500 C 1277.136 398.700, 1282.828 410.962, 1283.608 412.750 L 1285.027 416 1264.022 416 L 1243.017 416 1237.641 426.750 C 1234.685 432.663, 1231.951 438.512, 1231.565 439.750 L 1230.865 442 1263.885 442 L 1296.904 442 1301.016 450.750 C 1303.277 455.563, 1307.658 465.238, 1310.750 472.250 L 1316.373 485 1331.795 485 L 1347.217 485 1346.592 482.512 C 1346.249 481.143, 1339.275 465.280, 1331.095 447.262 C 1312.440 406.167, 1313.329 408.093, 1294.508 368 C 1285.859 349.575, 1276.888 330.446, 1274.572 325.491 C 1269.528 314.698, 1265.174 309.420, 1260.168 308.030 C 1258.150 307.470, 1256.275 307.061, 1256 307.122 C 1255.725 307.182, 1254.600 307.451, 1253.500 307.718 M 680.218 309.663 C 675.497 311.990, 672.973 316.139, 671.942 323.264 C 671.446 326.694, 671.031 364.500, 671.020 407.277 L 671 485.055 685.045 484.777 L 699.090 484.500 699.295 424.349 C 699.408 391.266, 699.780 364.370, 700.121 364.579 C 700.463 364.788, 715.625 384.206, 733.814 407.730 C 775.469 461.602, 787.323 476.671, 791.239 480.731 C 799.265 489.052, 811.105 486.582, 816.120 475.541 C 817.852 471.728, 817.957 466.915, 817.978 390.250 L 818 309 804 309 L 790 309 789.894 367.250 C 789.836 399.288, 789.874 426.850, 789.978 428.500 C 790.217 432.257, 791.342 433.503, 772.819 409.500 C 764.331 398.500, 753.361 384.394, 748.443 378.153 C 743.524 371.912, 737.022 363.587, 733.992 359.653 C 706.475 323.915, 697.329 312.616, 694.191 310.484 C 689.934 307.591, 685.009 307.302, 680.218 309.663 M 59.105 310.583 C 47.528 313.696, 36.925 322.373, 30.682 333.842 C 25.075 344.145, 22.961 361.933, 25.910 374 C 29.426 388.388, 38.789 400.263, 51.208 406.083 L 58.500 409.500 98 410 C 140.687 410.540, 140.414 410.505, 145.702 416.169 C 152.826 423.798, 152.826 440.202, 145.702 447.831 C 140.763 453.122, 142.257 453, 82.216 453 C 51.481 453, 26.146 453.186, 25.917 453.414 C 25.688 453.641, 25.635 460.841, 25.799 469.414 L 26.098 485 82.960 485 C 135.958 485, 140.235 484.871, 145.909 483.105 C 161.414 478.280, 172.833 465.584, 177.525 447.955 C 179.439 440.763, 179.430 423.069, 177.508 415.693 C 174.042 402.384, 164.615 390.399, 153.184 384.768 L 146.550 381.500 105.949 381 L 65.349 380.500 61.096 377.684 C 50.097 370.401, 50.173 351.005, 61.232 343.339 L 65.326 340.500 118.114 340.194 L 170.901 339.887 171.200 324.857 C 171.365 316.591, 171.313 309.641, 171.083 309.414 C 170.854 309.186, 146.779 309.030, 117.583 309.066 C 74.500 309.119, 63.484 309.405, 59.105 310.583 M 219 323.500 L 219 338 204 338 L 189 338 189 410.500 C 189 450.375, 188.887 483.337, 188.750 483.750 C 188.613 484.163, 218.988 484.616, 256.250 484.757 L 324 485.014 324 469.007 L 324 453 271 453 L 218 453 218 431.510 L 218 410.019 266.750 409.760 L 315.500 409.500 315.777 395.250 L 316.055 381 267.027 381 L 218 381 218 370.598 L 218 360.196 227.602 350.098 L 237.203 340 280.602 340 L 324 340 324 324.500 L 324 309 271.500 309 L 219 309 219 323.500 M 387 310.555 C 360.498 316.247, 338.312 341.393, 331.464 373.500 C 329.389 383.231, 329.024 407.217, 330.791 417.711 C 335.324 444.619, 351.115 468.198, 371.056 477.836 C 385.495 484.814, 386.914 484.969, 436.857 484.985 C 476.898 484.999, 481.155 484.846, 480.607 483.418 C 480.273 482.548, 480 475.366, 480 467.458 L 480 453.080 436.750 452.790 C 393.683 452.501, 393.475 452.490, 387.500 450.088 C 375.773 445.372, 365.565 432.083, 361.316 416 C 358.916 406.914, 358.961 384.948, 361.398 376 C 365.261 361.817, 374.138 350.233, 385.535 344.500 L 391.500 341.500 435.750 341.211 L 480 340.921 480 324.961 L 480 309 436.750 309.079 C 403.757 309.140, 391.959 309.490, 387 310.555 M 539.362 310.943 C 514.503 317.595, 495.289 339.072, 487.761 368.623 C 485.755 376.500, 485.510 379.810, 485.590 398 C 485.667 415.576, 485.981 419.602, 487.792 426.224 C 496.177 456.879, 515.924 478.336, 540.500 483.496 C 550.283 485.550, 597.637 485.572, 607.287 483.527 C 626.142 479.532, 641.907 466.097, 652.495 445 C 660.435 429.182, 663.676 411.648, 662.661 390 C 660.872 351.805, 642.462 322.495, 613.808 312.220 C 606.624 309.644, 605.992 309.595, 576.500 309.316 C 549.568 309.062, 545.770 309.228, 539.362 310.943 M 830.553 344.250 C 830.179 363.637, 830.014 403.125, 830.186 432 L 830.500 484.500 876.500 484.499 L 922.500 484.498 930.500 481.676 C 945.268 476.465, 955.946 468.540, 964.669 456.315 C 970.095 448.712, 976.438 434.546, 978.609 425.186 C 982.697 407.559, 982.184 380.761, 977.446 364.411 C 971.033 342.280, 957.398 324.866, 939.566 316.033 C 926.070 309.347, 923.188 309.037, 874.366 309.017 L 831.233 309 830.553 344.250 M 1067 323.474 L 1067 337.948 1051.750 338.224 L 1036.500 338.500 1036.500 411.500 L 1036.500 484.500 1099.372 484.500 L 1162.244 484.500 1165.169 476.548 C 1166.984 471.614, 1168.322 465.636, 1168.695 460.798 L 1169.296 453 1117.648 453 L 1066 453 1066 431.500 L 1066 410 1114 410 L 1162 410 1162 395.500 L 1162 381 1114 381 L 1066 381 1066 370.438 L 1066 359.876 1075.425 350.188 L 1084.850 340.500 1128.175 340.500 L 1171.500 340.500 1171.775 324.750 L 1172.051 309 1119.525 309 L 1067 309 1067 323.474 M 1349.676 368.750 C 1349.318 401.613, 1349.132 441.100, 1349.263 456.500 L 1349.500 484.500 1364 484.500 L 1378.500 484.500 1378.757 412.750 L 1379.013 341 1414.757 341.022 C 1447.444 341.042, 1450.842 341.203, 1454.500 342.900 C 1466.866 348.637, 1472.640 365.524, 1467.514 380.958 C 1465.323 387.553, 1458.849 394.393, 1453.351 395.919 C 1451.053 396.558, 1438.510 396.991, 1422.250 396.994 L 1395 397 1395 412.500 L 1395 428 1409.250 428.025 L 1423.500 428.050 1436.970 445.775 C 1444.378 455.524, 1454.053 468.311, 1458.470 474.192 L 1466.500 484.884 1484.750 484.942 C 1494.787 484.974, 1503 484.769, 1503 484.486 C 1503 483.803, 1487.411 463.533, 1470.708 442.500 L 1457.209 425.500 1461.854 424.426 C 1469.121 422.746, 1474.949 419.242, 1481.503 412.612 C 1492.815 401.169, 1498.011 387.576, 1497.983 369.503 C 1497.961 355.804, 1496.217 347.367, 1491.450 337.901 C 1486.788 328.643, 1476.866 318.460, 1468.824 314.680 C 1457.244 309.236, 1454.765 309.031, 1400.413 309.015 L 1350.326 309 1349.676 368.750 M 1499 325 L 1499 341 1527 341 L 1555 341 1555 413 L 1555 485 1569.500 485 L 1584 485 1584 413 L 1584 341 1612 341 L 1640 341 1640 325 L 1640 309 1569.500 309 L 1499 309 1499 325 M 1647.460 310.250 C 1647.198 310.938, 1647.100 350.425, 1647.242 398 L 1647.500 484.500 1661.750 484.777 L 1676 485.055 1676.151 446.277 C 1676.234 424.950, 1676.367 393.775, 1676.448 377 C 1676.528 360.225, 1676.390 338.063, 1676.141 327.750 L 1675.688 309 1661.813 309 C 1651.633 309, 1647.810 309.333, 1647.460 310.250 M 1758.750 327.250 C 1758.612 337.288, 1758.500 353.258, 1758.500 362.740 L 1758.500 379.979 1724.500 380.320 L 1690.500 380.660 1690.223 395.330 L 1689.947 410 1724.506 410 L 1759.065 410 1758.783 447.250 L 1758.500 484.500 1773 484.500 L 1787.500 484.500 1787.755 396.750 L 1788.011 309 1773.505 309 L 1759 309 1758.750 327.250 M 544.396 342.388 C 535.423 345.262, 526.165 353.767, 521.109 363.783 C 511.864 382.098, 511.796 409.492, 520.948 428.692 C 525.911 439.104, 531.424 445.099, 539.856 449.250 L 546.458 452.500 573.979 452.500 L 601.500 452.500 607.383 449.522 C 624.007 441.109, 633.287 422.064, 633.219 396.500 C 633.201 389.841, 632.517 382.540, 631.485 378 C 628.083 363.033, 619.123 350.252, 607.881 344.333 L 602.500 341.500 575.500 341.287 C 555.445 341.129, 547.444 341.412, 544.396 342.388 M 859 398.262 L 859 455.631 846.577 468.560 C 839.745 475.670, 834.321 481.654, 834.525 481.858 C 835.091 482.425, 839.010 479.138, 853.706 465.773 L 867.201 453.500 893.851 453 L 920.500 452.500 926.500 449.335 C 943.416 440.413, 952 422.556, 952 396.286 C 952 382.863, 949.968 372.817, 945.449 363.900 C 941.746 356.592, 932.868 347.577, 926.099 344.251 L 920.500 341.500 889.750 341.197 L 859 340.893 859 398.262 M 601.660 551.420 C 600.098 554.420, 597.301 558.590, 595.443 560.687 L 592.065 564.500 592.668 559.750 L 593.272 555 578.110 555 L 562.949 555 564.471 552.057 C 565.308 550.438, 565.630 548.890, 565.187 548.616 C 564.744 548.342, 560.963 547.808, 556.784 547.429 L 549.185 546.741 547.456 550.120 C 545.187 554.555, 537.154 564.646, 532.607 568.774 C 530.623 570.575, 529 572.433, 529 572.902 C 529 573.372, 531.700 574.766, 535 576 L 541 578.244 541 583.122 L 541 588 563 588 L 585 588 585 591 L 585 594 564.519 594 C 544.093 594, 544.037 594.006, 543.541 596.250 C 539.404 614.980, 538 621.706, 538 622.793 C 538 623.824, 541.149 624.037, 552.907 623.800 C 561.105 623.635, 567.603 623.839, 567.346 624.253 C 566.311 625.920, 541.048 636.004, 534.261 637.460 C 532.480 637.841, 530.793 638.527, 530.511 638.982 C 530.230 639.437, 531.594 641.719, 533.543 644.051 C 535.491 646.384, 537.525 649.112, 538.061 650.114 C 538.986 651.842, 539.445 651.786, 546.898 649.038 C 557.504 645.127, 573.570 636.975, 579.320 632.586 C 581.903 630.614, 584.126 628.999, 584.259 628.998 C 584.391 628.997, 584.359 633.965, 584.187 640.038 L 583.874 651.080 592.687 650.790 L 601.500 650.500 602 637 L 602.500 623.500 618.250 623.225 C 635.298 622.927, 635.627 623.041, 632.850 628.316 C 631.025 631.784, 630.072 632.039, 619.500 631.882 C 614 631.800, 609.574 632.025, 609.665 632.381 C 609.755 632.737, 610.145 634.935, 610.531 637.264 C 611.892 645.484, 611.527 645.311, 626.395 644.807 C 637.059 644.445, 640.216 643.990, 642.887 642.430 C 647.254 639.879, 649.911 634.441, 650.544 626.762 C 650.827 623.318, 651.250 618.362, 651.483 615.750 L 651.906 611 626.953 611 L 602 611 602 608.500 L 602 606 623.527 606 L 645.053 606 644.777 591.250 L 644.500 576.500 635.500 576 C 627.453 575.553, 627.008 575.433, 631.299 574.867 C 633.939 574.519, 636.351 573.983, 636.658 573.675 C 636.966 573.367, 636.238 571.739, 635.041 570.058 L 632.864 567 643.932 567 L 655 567 655 561 L 655 555 636.893 555 C 621.195 555, 618.867 554.800, 619.393 553.500 C 619.727 552.675, 620.258 551.366, 620.572 550.590 C 621.188 549.074, 619.996 548.562, 613.500 547.553 C 611.300 547.211, 608.375 546.714, 607 546.448 C 604.812 546.025, 604.146 546.645, 601.660 551.420 M 1016 561.961 L 1016 575.923 1011.750 577.021 C 1009.413 577.625, 1006.825 578.313, 1006 578.549 C 1004.733 578.912, 1004.500 577.310, 1004.500 568.239 L 1004.500 557.500 996.500 557.500 L 988.500 557.500 988.221 570.750 C 987.964 582.976, 987.796 584, 986.053 584 C 985.014 584, 983.452 584.273, 982.582 584.607 C 981.284 585.105, 981 584.407, 981 580.724 C 981 575.769, 979.979 575.040, 973 575.015 L 969.500 575.002 969.500 562.251 L 969.500 549.500 961.250 549.210 L 953 548.919 953 562.319 L 953 575.718 948.250 575.485 C 940.149 575.087, 940 575.224, 940 583.067 L 940 590 946.500 590 L 953 590 953 606.854 L 953 623.709 945.250 625.984 C 940.987 627.236, 937.356 628.383, 937.179 628.534 C 936.866 628.802, 940.933 643.202, 941.493 643.805 C 941.779 644.113, 974.887 632.852, 980.581 630.511 L 983.662 629.243 982.932 623.056 C 982.531 619.653, 982.024 616.690, 981.805 616.471 C 981.586 616.253, 978.953 616.727, 975.953 617.525 C 972.954 618.323, 970.163 618.982, 969.750 618.988 C 969.337 618.995, 969 612.475, 969 604.500 L 969 590 973.371 590 L 977.742 590 978.406 595 C 978.770 597.750, 979.222 600, 979.409 600 C 979.596 600, 981.605 599.345, 983.874 598.544 L 988 597.089 988 617.524 C 988 646.566, 988.826 648.050, 1005.782 649.456 C 1010.338 649.834, 1024.671 649.819, 1037.633 649.422 C 1060.611 648.720, 1061.273 648.641, 1064.082 646.278 C 1066.996 643.826, 1068.521 639.792, 1069.948 630.763 C 1070.817 625.268, 1070.611 625.046, 1062.879 623.162 C 1060.337 622.543, 1057.552 621.765, 1056.690 621.434 C 1055.488 620.973, 1054.973 621.728, 1054.485 624.666 C 1054.135 626.775, 1053.378 629.737, 1052.803 631.250 L 1051.757 634 1029.579 634 C 1013.662 634, 1007.061 633.661, 1006.200 632.800 C 1005.350 631.950, 1005 626.013, 1005 612.458 L 1005 593.317 1009.104 592.087 C 1011.361 591.411, 1013.836 590.616, 1014.604 590.322 C 1015.767 589.875, 1016 592.809, 1016 607.893 L 1016 626 1023.962 626 L 1031.925 626 1032.212 616.750 L 1032.500 607.500 1034.450 613.879 L 1036.400 620.258 1044.046 619.734 C 1048.252 619.446, 1053.104 618.480, 1054.830 617.588 C 1060.694 614.556, 1061.349 611.842, 1061.973 588 C 1062.282 576.175, 1062.303 566.214, 1062.018 565.864 C 1061.583 565.331, 1044.640 568.822, 1034.613 571.511 L 1031.726 572.286 1032.451 560.143 L 1033.175 548 1024.588 548 L 1016 548 1016 561.961 M 1221 557 L 1221 566 1206 566 L 1191 566 1191 573 L 1191 580 1206 580 L 1221 580 1221 591.006 L 1221 602.012 1209.750 609.290 C 1192.366 620.535, 1189 622.361, 1189 620.542 C 1189 618.663, 1189.202 618.664, 1184 620.500 C 1181.662 621.325, 1179.355 622, 1178.874 622 C 1178.393 622, 1178 617.500, 1178 612 L 1178 602 1183 602 L 1188 602 1188 595 L 1188 588 1182.750 588.002 L 1177.500 588.005 1177.821 579.002 L 1178.142 570 1183.464 570 C 1189.626 570, 1190 569.508, 1190 561.418 L 1190 556 1168.954 556 L 1147.909 556 1148.204 562.750 L 1148.500 569.500 1155.252 569.500 L 1162.004 569.500 1162.002 579.336 L 1162 589.172 1156.250 588.836 L 1150.500 588.500 1150.500 595 L 1150.500 601.500 1156.250 601.800 L 1162 602.100 1162 613.959 L 1162 625.818 1155.070 627.057 C 1151.259 627.738, 1147.653 628.597, 1147.057 628.965 C 1145.552 629.895, 1148.750 644.013, 1150.343 643.477 C 1150.979 643.263, 1159.600 641.268, 1169.500 639.043 C 1179.400 636.817, 1188.247 634.569, 1189.160 634.046 C 1190.407 633.332, 1191.168 633.620, 1192.218 635.202 C 1193.595 637.276, 1193.767 637.209, 1203.059 631.012 C 1208.251 627.548, 1214.430 623.159, 1216.789 621.258 L 1221.078 617.802 1220.789 627.151 L 1220.500 636.500 1213 636.771 C 1202.402 637.154, 1202.666 636.899, 1205.282 644.212 L 1207.531 650.500 1218.016 650.469 C 1235.955 650.416, 1238 648.007, 1238 626.922 L 1238 613.780 1242.324 619.640 C 1247.008 625.988, 1260.091 638.655, 1264.258 640.876 C 1266.697 642.176, 1267.016 642.051, 1270.047 638.599 C 1275.871 631.966, 1277.268 629.867, 1276.379 629.084 C 1275.895 628.658, 1272.125 626.012, 1267.999 623.202 C 1263.874 620.393, 1258.733 616.286, 1256.574 614.076 L 1252.650 610.058 1261.898 600.498 C 1266.985 595.240, 1270.976 590.390, 1270.769 589.719 C 1270.562 589.049, 1267.801 587.150, 1264.635 585.500 L 1258.877 582.500 1256.869 585 C 1250.879 592.454, 1245.768 598, 1244.887 598 C 1243.643 598, 1238.981 587.621, 1238.272 583.274 L 1237.746 580.047 1255.623 579.774 L 1273.500 579.500 1273.500 573 L 1273.500 566.500 1267.500 566 L 1261.500 565.500 1264.729 563.077 C 1267.299 561.149, 1267.722 560.370, 1266.802 559.261 C 1265.875 558.145, 1257.453 552.387, 1251.395 548.728 C 1250.273 548.051, 1242 554.452, 1242 555.996 C 1242 556.459, 1243.463 557.775, 1245.250 558.922 C 1247.037 560.069, 1249.850 562.129, 1251.500 563.499 L 1254.500 565.990 1246.250 565.995 L 1238 566 1238 557 L 1238 548 1229.500 548 L 1221 548 1221 557 M 746 568 L 746 576 797 576 L 848 576 848 568 L 848 560 797 560 L 746 560 746 568 M 577 566.874 C 577 567.283, 577.661 568.491, 578.468 569.559 C 580.885 572.754, 580.235 573.842, 575.488 574.554 C 573.006 574.926, 570.682 575.705, 570.324 576.285 C 569.912 576.951, 570.315 577.093, 571.418 576.670 C 572.378 576.301, 578.414 575.972, 584.832 575.938 L 596.500 575.876 592.224 573.728 C 589.163 572.191, 588.124 571.142, 588.569 570.040 C 588.912 569.193, 589.374 568.050, 589.596 567.500 C 589.837 566.905, 587.369 566.425, 583.500 566.315 C 579.925 566.214, 577 566.465, 577 566.874 M 606.388 571.113 L 601.575 576 612.417 576 L 623.259 576 619.790 571.798 C 614.462 565.345, 612.184 565.229, 606.388 571.113 M 549.750 571.578 C 547.138 574.071, 545 576.248, 545 576.416 C 545 576.787, 564.367 575.860, 564.822 575.467 C 564.999 575.314, 563.981 573.346, 562.560 571.094 C 559.009 565.470, 556.035 565.582, 549.750 571.578 M 1038.500 584.952 L 1032.500 586.667 1032.163 596.334 L 1031.826 606 1037.854 606 C 1041.169 606, 1044.086 605.663, 1044.335 605.250 C 1045.247 603.742, 1046.216 583.003, 1045.369 583.118 C 1044.891 583.183, 1041.800 584.008, 1038.500 584.952 M 1195.750 586.692 C 1193.138 588.147, 1191 589.707, 1191 590.160 C 1191 590.612, 1192.539 592.999, 1194.421 595.464 C 1196.302 597.929, 1198.860 601.758, 1200.105 603.973 C 1201.350 606.188, 1202.748 608, 1203.213 608 C 1204.683 608, 1216.001 602.004, 1215.981 601.236 C 1215.930 599.290, 1203.674 584.003, 1202.183 584.024 C 1201.257 584.038, 1198.362 585.238, 1195.750 586.692 M 601.838 588.496 C 601.534 588.799, 601.499 590.161, 601.760 591.524 C 602.271 594.199, 600.896 594.028, 625.250 594.444 C 628.207 594.495, 628.500 594.229, 628.500 591.500 L 628.500 588.500 615.444 588.222 C 608.264 588.070, 602.141 588.193, 601.838 588.496 M 556.607 607.582 C 556.273 608.452, 556 609.577, 556 610.082 C 556 610.597, 562.403 611, 570.607 611 C 583.516 611, 585.143 610.816, 584.607 609.418 C 584.273 608.548, 584 607.423, 584 606.918 C 584 606.406, 578.074 606, 570.607 606 C 559.317 606, 557.119 606.248, 556.607 607.582 M 735 633.500 L 735 642 797 642 L 859 642 859 633.500 L 859 625 797 625 L 735 625 735 633.500" stroke="none" fill="#000000" fill-rule="evenodd"/>
</svg>